# xmcd
#
# Track frame offsets: 
#        150
#        34548
#        52047
#        76661
#        90084
#        104936
#        121858
#        138986
#        155649
#        167427
#        180732
#        196977
#        209607
#        237651
#        257068
#        279804
#        293649
#        311749
#        324210
#
# Disc length: 4541 seconds
#
# Revision: 1
# Processed by: cddbd v1.5.2PL0 Copyright (c) Steve Scherf et al.
# Submitted via: ExactAudioCopyFreeDBPlugin 1.0
#
DISCID=0411bb13
DTITLE=Various Artist - Blue Note TripTease Vol. 3 CD2
DYEAR=2012
DGENRE=Jazz
TTITLE0=Hank Mobley - I Should Care
TTITLE1=Patricia Barber - What Is This Thing Called Love?
TTITLE2=Horace Silver - All
TTITLE3=Ambrose Akinmusire - What's New
TTITLE4=Yma Sumac - Bo Mambo
TTITLE5=Bud Powell - Blue Pearl
TTITLE6=Willie Nelson and Wynton Marsalis feat Norah Jones - Come Rain O
TTITLE6=r Come Shine
TTITLE7=Dr John - Lazy Bones
TTITLE8=Hindi Zahra - Don't Forget
TTITLE9=Erik Truffaz 4tet feat Ed Harcourt - Nobody Puts Baby In The C
TTITLE9=orner
TTITLE10=Jim Tomlinson feat Stacey Kent - My Heart Belongs To Daddy
TTITLE11=June Christy - A Night In Tunisia
TTITLE12=Stanley Turrentine - Bayou
TTITLE13=Nina Simone - The House Of The Rising Sun
TTITLE14=Leo Parker - Blue Leo
TTITLE15=Peggy Lee - Fisherman's Wharf
TTITLE16=Horace Parlan - Lonely One
TTITLE17=Nancy Wilson - Darn That Dream
TTITLE18=Terence Blanchard - Dear Mom
EXTD=YEAR: 2012
EXTT0=
EXTT1=
EXTT2=
EXTT3=
EXTT4=
EXTT5=
EXTT6=
EXTT7=
EXTT8=
EXTT9=
EXTT10=
EXTT11=
EXTT12=
EXTT13=
EXTT14=
EXTT15=
EXTT16=
EXTT17=
EXTT18=
PLAYORDER=
